<?xml version="1.0" standalone="no"?>
<!DOCTYPE svg PUBLIC "-//W3C//DTD SVG 20010904//EN"
 "http://www.w3.org/TR/2001/REC-SVG-20010904/DTD/svg10.dtd">
<svg version="1.0" xmlns="http://www.w3.org/2000/svg"
 width="566.000000pt" height="566.000000pt" viewBox="0 0 566.000000 566.000000"
 preserveAspectRatio="xMidYMid meet">
<metadata>
Created by potrace 1.14, written by Peter Selinger 2001-2017
</metadata>
<g transform="translate(0.000000,566.000000) scale(0.100000,-0.100000)"
fill="#000000" stroke="none">
<path d="M2639 5636 c-2 -2 -38 -6 -79 -9 -41 -4 -84 -8 -95 -11 -11 -2 -45
-7 -75 -11 -30 -3 -71 -11 -90 -15 -19 -5 -50 -12 -69 -15 -19 -3 -37 -8 -41
-10 -3 -2 -17 -6 -31 -8 -204 -38 -561 -187 -809 -340 -73 -45 -275 -189 -290
-206 -3 -3 -39 -35 -80 -71 -306 -264 -585 -648 -734 -1010 -15 -36 -33 -78
-40 -95 -47 -107 -129 -412 -152 -563 -3 -20 -7 -48 -10 -62 -13 -82 -19 -203
-18 -415 0 -238 6 -307 48 -537 2 -13 15 -68 29 -123 253 -1011 1041 -1799
2052 -2052 55 -14 111 -27 125 -29 14 -3 48 -9 75 -14 221 -40 711 -50 865
-16 14 3 43 7 65 10 22 3 60 9 85 15 25 5 60 13 79 16 114 20 396 111 531 173
200 90 406 212 575 341 151 115 320 277 450 432 237 283 423 624 528 969 33
107 65 228 73 275 1 11 8 47 13 80 12 69 18 108 30 220 10 85 9 554 -1 570 -3
6 -8 37 -12 70 -3 33 -8 71 -11 85 -3 14 -8 41 -11 60 -13 78 -47 212 -85 334
-232 740 -775 1361 -1483 1696 -174 82 -370 153 -516 186 -19 4 -39 9 -45 10
-52 14 -169 36 -232 45 -43 6 -91 13 -108 16 -38 5 -500 14 -506 9z"/>
</g>
</svg>
